<?xml version="1.0" encoding="UTF-8" standalone="no"?>
<!-- Generator: Adobe Illustrator 16.0.0, SVG Export Plug-In . SVG Version: 6.00 Build 0)  -->

<svg
   version="1.1"
   id="Capa_1"
   x="0px"
   y="0px"
   width="392.186px"
   height="392.186px"
   viewBox="0 0 392.186 392.186"
   style="enable-background:new 0 0 392.186 392.186;"
   xml:space="preserve"
   sodipodi:docname="programming-code-svgrepo-com.svg"
   inkscape:version="1.2 (1:1.2.1+202207142221+cd75a1ee6d)"
   xmlns:inkscape="http://www.inkscape.org/namespaces/inkscape"
   xmlns:sodipodi="http://sodipodi.sourceforge.net/DTD/sodipodi-0.dtd"
   xmlns="http://www.w3.org/2000/svg"
   xmlns:svg="http://www.w3.org/2000/svg"><defs
   id="defs49" /><sodipodi:namedview
   id="namedview47"
   pagecolor="#ffffff"
   bordercolor="#666666"
   borderopacity="1.0"
   inkscape:showpageshadow="2"
   inkscape:pageopacity="0.0"
   inkscape:pagecheckerboard="true"
   inkscape:deskcolor="#d1d1d1"
   showgrid="false"
   inkscape:zoom="2"
   inkscape:cx="421.25"
   inkscape:cy="194"
   inkscape:window-width="2560"
   inkscape:window-height="1361"
   inkscape:window-x="0"
   inkscape:window-y="0"
   inkscape:window-maximized="1"
   inkscape:current-layer="g14" />
<g
   id="g14">
	<g
   id="g12"
   transform="matrix(0.5,0,0,0.5,98.04625,98.04625)">
		<g
   id="g10">
			<path
   d="M 368.62,17.951 H 23.568 C 10.57,17.951 0,28.524 0,41.52 v 309.146 c 0,12.996 10.57,23.568 23.568,23.568 h 345.053 c 12.994,0 23.564,-10.572 23.564,-23.568 V 41.52 C 392.188,28.525 381.614,17.951 368.62,17.951 Z m -71.06,39.577 c 0,-4.806 3.896,-8.703 8.701,-8.703 h 8.703 c 4.808,0 8.701,3.896 8.701,8.703 v 9.863 c 0,4.806 -3.896,8.702 -8.701,8.702 h -8.703 c -4.805,0 -8.701,-3.896 -8.701,-8.702 z m -40.467,0 c 0,-4.806 3.898,-8.703 8.703,-8.703 h 8.701 c 4.805,0 8.703,3.896 8.703,8.703 v 9.863 c 0,4.806 -3.898,8.702 -8.703,8.702 h -8.701 c -4.805,0 -8.703,-3.896 -8.703,-8.702 z m 106.81,288.423 H 28.282 V 102.235 h 335.621 v 243.716 z m 0.229,-278.56 c 0,4.806 -3.896,8.702 -8.701,8.702 h -8.703 c -4.809,0 -8.702,-3.896 -8.702,-8.702 v -9.863 c 0,-4.806 3.896,-8.703 8.702,-8.703 h 8.703 c 4.806,0 8.701,3.896 8.701,8.703 z"
   id="path2" />
			<path
   d="m 84.185,233.284 63.084,29.336 c 1.631,0.755 3.367,1.138 5.162,1.138 2.338,0 4.617,-0.664 6.598,-1.924 3.547,-2.267 5.666,-6.13 5.666,-10.334 v -0.322 c 0,-4.752 -2.785,-9.116 -7.096,-11.118 l -39.455,-18.332 39.455,-18.334 c 4.311,-2.004 7.096,-6.367 7.096,-11.117 v -0.319 c 0,-4.21 -2.119,-8.075 -5.666,-10.334 -1.961,-1.253 -4.246,-1.916 -6.605,-1.916 -1.779,0 -3.563,0.391 -5.16,1.133 l -63.08,29.333 c -4.307,2.004 -7.09,6.369 -7.09,11.117 v 0.877 c -10e-4,4.741 2.78,9.104 7.091,11.116 z"
   id="path4" />
			<path
   d="m 165.257,293.036 c 2.301,3.149 6.002,5.03 9.9,5.03 h 0.316 c 5.352,0 10.041,-3.426 11.672,-8.517 L 228.7,160.788 c 1.192,-3.716 0.531,-7.818 -1.771,-10.973 -2.301,-3.15 -6.002,-5.03 -9.901,-5.03 h -0.315 c -5.354,0 -10.048,3.425 -11.679,8.516 l -41.559,128.771 c -1.183,3.721 -0.517,7.817 1.782,10.964 z"
   id="path6" />
			<path
   d="m 227.49,192.276 c 0,4.745 2.783,9.109 7.095,11.123 l 39.455,18.329 -39.455,18.33 c -4.31,2.004 -7.095,6.368 -7.095,11.118 v 0.322 c 0,4.205 2.117,8.068 5.668,10.336 1.974,1.258 4.254,1.924 6.595,1.924 1.793,0 3.528,-0.383 5.17,-1.142 l 63.08,-29.335 c 4.307,-2.009 7.09,-6.372 7.09,-11.115 v -0.877 c 0,-4.748 -2.783,-9.113 -7.094,-11.117 l -63.08,-29.333 c -1.591,-0.74 -3.373,-1.131 -5.152,-1.131 -2.355,0 -4.643,0.661 -6.604,1.912 -3.551,2.263 -5.67,6.127 -5.67,10.337 v 0.318 h -0.003 z"
   id="path8" />
		</g>
	</g>
<path
   style="fill:#ffffff;stroke-width:0.381875"
   d="m 107.09441,106.85425 c -4.26114,1.55507 -8.318975,5.00633 -9.070284,9.61774 0.03434,53.40687 -0.06861,106.82954 0.05146,160.22655 1.829726,5.00192 6.775514,9.12117 12.302554,8.54449 44.54462,0.4591 89.09434,0.11203 133.64095,0.16888 13.68981,-0.043 27.3937,0.0414 41.07474,-0.0809 4.23075,-1.59368 8.31781,-5.00804 9.06805,-9.61699 -0.0343,-53.40688 0.0686,-106.82954 -0.0515,-160.22655 -1.64918,-4.27587 -5.46157,-7.90118 -9.99514,-8.68021 -59.00523,0.0314 -118.0242,-0.0626 -177.02087,0.047 z m 126.16655,16.03653 c 2.30331,-0.30903 5.13725,0.27985 5.77885,2.85287 0.63319,2.78021 0.73669,6.10674 -0.69439,8.59966 -2.06748,2.02344 -5.35024,1.13537 -7.96419,1.15457 -2.33882,0.13938 -3.56621,-2.0794 -3.38168,-4.16184 0.12065,-2.49272 -0.6601,-5.71876 1.32686,-7.64049 1.45848,-0.88514 3.29312,-0.75084 4.93455,-0.80477 z m 23.16239,0.10218 c 0.0468,0.006 -0.0434,-0.007 0,0 z m 0.42737,0.088 c 0.0574,0.0148 -0.0648,-0.0194 0,0 z m 0.17154,0.0544 c 0.068,0.0233 -0.0755,-0.0294 0,0 z m 0.15141,0.0627 c 0.067,0.0296 -0.0603,-0.0289 0,0 z m 0.1529,0.0783 c 0.0515,0.0271 -0.0662,-0.0388 0,0 z m -8.15662,0.082 c 0.0178,-0.005 0.0677,-0.0292 0,0 z m -0.2342,0.1 c 0.017,-0.005 0.0804,-0.041 0,0 z m 9.64459,0.92634 c 0.0266,0.0333 -0.0182,-0.0258 0,0 z m -10.74024,0.11039 c 0.009,-0.0138 0.0285,-0.0598 0,0 z m -0.10964,0.22599 c 0.008,-0.007 0.0336,-0.0828 0,0 z m -0.17901,0.50643 c 0.005,-0.0104 0.0166,-0.0631 0,0 z m 0.002,8.19615 c 2.6e-4,-0.009 -0.0221,-0.0661 0,0 z m 0.0865,0.25434 c -0.003,-0.0164 -0.031,-0.073 0,0 z m 0.0962,0.22748 c -0.005,-0.0175 -0.037,-0.072 0,0 z m 0.10666,0.2081 c -0.004,-0.0121 -0.038,-0.0654 0,0 z m 10.738,0.0313 c -0.0182,0.0258 0.0266,-0.0333 0,0 z m -9.85716,0.83162 c -0.005,-0.007 -0.0625,-0.0306 0,0 z m 8.60115,0.27895 c -0.0662,0.0388 0.0515,-0.0272 0,0 z m -0.15364,0.0783 c -0.0599,0.0295 0.0754,-0.0324 0,0 z m -0.14992,0.0619 c -0.0727,0.0275 0.0654,-0.0228 0,0 z m -0.17304,0.0545 c -0.0686,0.0199 0.0667,-0.0171 0,0 z m -6.50978,0.005 c -0.007,-0.003 -0.0444,-0.005 0,0 z m 6.07868,0.0798 c -0.0443,0.007 0.0513,-0.006 0,0 z m -60.3241,14.0871 c 27.83762,0 55.67524,0 83.51287,0 0,40.40023 0,80.80046 0,121.20068 -55.67525,0 -111.35049,0 -167.02573,0 0,-40.40022 0,-80.80045 0,-121.20068 27.83762,0 55.67524,0 83.51286,0 z"
   id="path541" /><path
   style="fill:#ffffff;stroke-width:0.190938"
   d="m 217.95276,187.51199 c -3.26885,0.0103 -6.27292,2.66852 -6.51463,5.95935 -0.34425,2.96954 1.64669,5.94803 4.46618,6.89401 5.96126,2.91894 12.03007,5.5932 17.98055,8.53055 -6.40709,3.27961 -13.11921,6.00696 -19.48459,9.39063 -3.06848,1.74052 -3.86922,6.19224 -1.8911,9.03075 1.29908,2.17475 3.93781,3.3172 6.4225,2.88285 1.80792,-0.13156 3.32556,-1.40583 5.01261,-2.00801 9.834,-4.648 19.80227,-9.02609 29.49678,-13.96078 1.80962,-1.35078 2.76465,-3.74268 2.50121,-5.9821 -0.0799,-3.00699 -2.64864,-5.25315 -5.30979,-6.1993 -10.42177,-4.86047 -20.82891,-9.76511 -31.3536,-14.39549 -0.43289,-0.10768 -0.88057,-0.15042 -1.32612,-0.14246 z"
   id="path543" /><path
   style="fill:#ffffff;stroke-width:0.190938"
   d="m 206.44839,170.10422 c -2.54709,-0.15166 -4.87993,1.5627 -5.9489,3.79004 -6.71639,20.27452 -13.26646,40.60495 -19.74802,60.95584 -0.64399,2.66679 -2.21993,5.45661 -1.2693,8.23819 1.03808,2.71573 3.87096,4.76157 6.84206,4.30131 2.71554,-0.1144 5.17333,-2.22278 5.6886,-4.8965 6.70727,-20.16381 13.24205,-40.38575 19.66482,-60.64176 0.74649,-2.61542 2.08297,-5.53023 0.70994,-8.18345 -1.06911,-2.13598 -3.52788,-3.70891 -5.9392,-3.56367 z"
   id="path545" /><path
   style="fill:#ffffff;stroke-width:0.190938"
   d="m 174.04716,187.51013 c -2.04922,0.10513 -3.76719,1.46848 -5.65694,2.13943 -9.65334,4.43529 -19.34946,8.79249 -28.90539,13.42982 -2.23704,1.3173 -3.59697,3.93058 -3.24259,6.52694 0.16312,2.29902 1.66118,4.55254 3.87727,5.34516 10.55624,5.16966 21.24149,10.0752 31.93846,14.94495 3.15683,1.27565 6.99201,-0.53161 8.19802,-3.6748 1.24055,-2.83351 0.14443,-6.57312 -2.6515,-8.04997 -6.32552,-3.31711 -12.94699,-6.03634 -19.31118,-9.27987 6.57975,-3.2759 13.37634,-6.11886 19.88698,-9.526 2.56897,-1.94025 3.40311,-5.78906 1.71023,-8.5631 -1.13866,-2.06602 -3.51974,-3.29249 -5.84336,-3.29256 z"
   id="path547" /></g>
<g
   id="g16">
</g>
<g
   id="g18">
</g>
<g
   id="g20">
</g>
<g
   id="g22">
</g>
<g
   id="g24">
</g>
<g
   id="g26">
</g>
<g
   id="g28">
</g>
<g
   id="g30">
</g>
<g
   id="g32">
</g>
<g
   id="g34">
</g>
<g
   id="g36">
</g>
<g
   id="g38">
</g>
<g
   id="g40">
</g>
<g
   id="g42">
</g>
<g
   id="g44">
</g>
</svg>
